<svg version="1.1" id="Layer_1" xmlns="http://www.w3.org/2000/svg" xmlns:xlink="http://www.w3.org/1999/xlink" x="0px" y="0px"
	 width="100%" viewBox="0 0 592 592" enable-background="new 0 0 592 592" xml:space="preserve">
<path fill="#000000" opacity="1.000000" stroke="#000000" stroke-width="7" 
	d="
M193.000122,378.019684 
	C213.666138,378.013489 233.832382,378.055969 253.998230,377.984222 
	C268.848114,377.931396 277.635254,369.106445 277.674103,354.379272 
	C277.693909,346.879517 277.423706,339.367371 277.782135,331.884674 
	C277.987335,327.600189 276.408752,325.693024 272.432861,324.389954 
	C239.053436,313.450104 205.734238,302.326416 172.394638,291.264954 
	C168.129761,289.849945 163.833344,288.528198 159.583923,287.068939 
	C151.752518,284.379639 146.639297,278.850555 146.090469,270.704834 
	C145.399216,260.445068 144.760651,250.047195 146.623520,239.814209 
	C149.347290,224.852219 161.712479,214.694122 177.020493,214.666428 
	C203.352966,214.618774 229.685684,214.613892 256.018127,214.673660 
	C272.457458,214.710968 286.024017,227.647141 286.940125,244.002197 
	C287.117859,247.174637 286.192993,249.860016 282.623779,250.138901 
	C279.296783,250.398834 278.135651,248.022980 277.695190,245.052994 
	C275.560974,230.662491 267.816833,223.991501 253.449600,224.008347 
	C228.783707,224.037231 204.117783,224.032074 179.451889,224.056564 
	C163.816818,224.072098 155.339294,232.522934 155.312775,248.094406 
	C155.301987,254.427536 155.286407,260.760834 155.320572,267.093811 
	C155.355408,273.550903 157.558441,276.660950 163.494843,278.633911 
	C200.626663,290.974609 237.770737,303.278442 274.892731,315.648621 
	C288.128326,320.059143 287.266327,318.254974 287.077240,332.486511 
	C286.949066,342.134888 287.935547,351.820129 286.391083,361.429779 
	C283.974976,376.463226 271.326691,387.329254 256.076630,387.360901 
	C229.910828,387.415253 203.744736,387.421387 177.578964,387.360474 
	C160.583344,387.320892 147.767334,375.693848 145.900101,358.811035 
	C145.534714,355.507507 146.161819,352.456268 149.919281,351.938477 
	C153.743835,351.411438 154.995972,354.078735 155.334946,357.525940 
	C156.563202,370.016602 164.962723,377.747253 177.501251,377.985046 
	C182.499298,378.079865 187.500443,378.012756 193.000122,378.019684 
z"/>
<path fill="#333333" opacity="1.000000" stroke="#000000" stroke-width="7"
	d="
M398.182190,364.067505 
	C395.614258,370.446350 393.162598,376.458496 390.748108,382.485504 
	C389.786194,384.886536 388.714172,387.200470 385.656433,387.230377 
	C382.551117,387.260773 381.521210,384.858063 380.565247,382.495422 
	C371.072845,359.035675 361.561890,335.583374 352.109497,312.107483 
	C340.294678,282.764374 328.527069,253.402283 316.752838,224.042877 
	C316.197449,222.658051 315.536133,221.250977 315.346985,219.799194 
	C315.061615,217.608505 316.073212,215.881714 318.194946,215.059387 
	C320.120605,214.313034 321.997009,214.801559 323.116425,216.425827 
	C324.326111,218.181076 325.199646,220.204697 326.001404,222.199051 
	C345.188019,269.924591 364.343262,317.662781 383.520660,365.392059 
	C383.947052,366.453217 384.564880,367.437408 385.341400,368.936218 
	C387.438965,366.742310 388.081177,364.206116 389.025574,361.862396 
	C408.005219,314.761322 426.973083,267.655518 445.949188,220.553009 
	C446.384064,219.473648 446.796021,218.368942 447.376617,217.367661 
	C448.722137,215.047195 450.778595,214.052826 453.282745,215.176117 
	C455.737518,216.277252 456.646149,218.414505 455.673889,220.986679 
	C453.555695,226.590805 451.353668,232.164246 449.114349,237.721390 
	C432.190460,279.720428 415.249207,321.712494 398.182190,364.067505 
z"/>
</svg>